<svg xmlns="http://www.w3.org/2000/svg" width="34.459" height="23.892" viewBox="0 0 34.459 23.892">
  <g id="グループ_168" data-name="グループ 168" transform="translate(-584 -1591.108)">
    <path id="パス_43" data-name="パス 43" d="M568.878,190.826l.672,7.905a.744.744,0,0,1-.719.793h-.751a1.149,1.149,0,0,1-1.091-1.191V178.783a.163.163,0,0,1,.162-.163,1.558,1.558,0,0,1,.492.079c1.932.641,2.239,4.767,2.254,6.421.015,1.613-.184,4.276-1.021,5.707Zm-30.07-3.713.174,11.263a1.1,1.1,0,0,1-1.051,1.149h-.1a1.1,1.1,0,0,1-1.05-1.149l.174-11.263a2.2,2.2,0,0,1-1.516-2.149V180.7a2.254,2.254,0,0,1,1.15-2,.163.163,0,0,1,.239.144v5.174h.486v-5.185a.569.569,0,1,1,1.135,0v5.185h.486v-5.174a.163.163,0,0,1,.239-.144,2.254,2.254,0,0,1,1.15,2v4.265a2.2,2.2,0,0,1-1.516,2.149ZM553.227,201.2a11.946,11.946,0,1,1,11.946-11.946A11.959,11.959,0,0,1,553.227,201.2Zm0-22.5a10.554,10.554,0,1,0,10.554,10.554A10.566,10.566,0,0,0,553.227,178.7Zm0,19.067a8.513,8.513,0,1,0-8.513-8.513,8.53,8.53,0,0,0,8.513,8.513Z" transform="translate(48.559 1413.798)" fill="#f2c2c9" fill-rule="evenodd"/>
  </g>
</svg>
