<svg xmlns="http://www.w3.org/2000/svg" width="340.001" height="1347.934" viewBox="0 0 340.001 1347.934">
  <g id="グループ_182" data-name="グループ 182" transform="translate(-1146.999 -18.066)">
    <path id="パス_109" data-name="パス 109" d="M145.812,117.327c-8.3,18.429-14.64,44.586-17.879,75.01l46.793,46.373Z" transform="translate(1213.898 302.673)" fill="#ff0b0b"/>
    <circle id="楕円形_57" data-name="楕円形 57" cx="53.5" cy="53.5" r="53.5" transform="translate(1290 607)" fill="rgba(235,23,243,0.51)" opacity="0.464"/>
    <path id="多角形_6" data-name="多角形 6" d="M69,0l69,149H0Z" transform="matrix(0.485, 0.875, -0.875, 0.485, 1420.097, 18.066)" fill="rgba(255,208,42,0.64)"/>
    <path id="多角形_8" data-name="多角形 8" d="M69,0l69,149H0Z" transform="matrix(0.485, 0.875, -0.875, 0.485, 1375.097, 874)" fill="rgba(0,175,245,0.34)"/>
    <rect id="長方形_123" data-name="長方形 123" width="62" height="62" rx="21" transform="translate(1310.202 1366) rotate(-115)" fill="#d9e6b4"/>
    <rect id="長方形_179" data-name="長方形 179" width="25" height="26" rx="12.5" transform="translate(1313.565 383.393) rotate(-115)" fill="rgba(0,175,245,0.22)"/>
    <rect id="長方形_180" data-name="長方形 180" width="28" height="25" transform="translate(1259.748 548.839) rotate(156)" fill="rgba(255,208,42,0.44)"/>
    <rect id="長方形_126" data-name="長方形 126" width="80" height="80" transform="translate(1206.451 307.018) rotate(48)" fill="rgba(42,255,165,0.56)" opacity="0.713"/>
  </g>
</svg>
